# xmcd
#
# Track frame offsets: 
#        150
#        21990
#        39830
#        61733
#        84679
#        100596
#        114582
#        131510
#        149247
#        164392
#        179736
#        198450
#        213056
#
# Disc length: 3117 seconds
#
# Revision: 0
# Processed by: cddbd v1.5.2PL0 Copyright (c) Steve Scherf et al.
# Submitted via: ExactAudioCopy v0.99pb4
#
DISCID=b70c2b0d
DTITLE=Hanne Boel - A New Kinda Soul
DYEAR=2008
DGENRE=Soul
TTITLE0=Story
TTITLE1=Heat Is On (feat. Thomas Helmig)
TTITLE2=Wedding Day
TTITLE3=Season Of The Witch
TTITLE4=Don't Know Much About Love
TTITLE5=I'll Stand By You
TTITLE6=I Wanna Make Love To You
TTITLE7=Talk It Out (feat. Eagle-Eye Cherry)
TTITLE8=No Love At All
TTITLE9=Nobody's Fault But Mine
TTITLE10=Easier Said Than Done
TTITLE11=Coming Up
TTITLE12=If You Want My Body
EXTD=
EXTT0=
EXTT1=
EXTT2=
EXTT3=
EXTT4=
EXTT5=
EXTT6=
EXTT7=
EXTT8=
EXTT9=
EXTT10=
EXTT11=
EXTT12=
PLAYORDER=
